<?xml version="1.0" encoding="UTF-8"?>
<svg id="Layer_1" data-name="Layer 1" xmlns="http://www.w3.org/2000/svg" version="1.1" viewBox="0 0 2000 972">
  <defs>
    <style>
      .cls-1 {
        fill: #fff;
        stroke-width: 0px;
      }
    </style>
  </defs>
  <polygon class="cls-1" points="1059.1 273.1 1046.1 273.1 1046.1 227.3 1003.1 227.3 1003.1 273.1 989.5 273.1 989.5 94 1003.1 94 1003.1 215.3 1046.1 215.3 1046.1 94 1059.1 94 1059.1 273.1"/>
  <path class="cls-1" d="M1147.3,237.8v-108.2c0-19.2,12-37.1,35.6-37.1s34,17.4,34,37.4v107.7c0,19-11.2,37.4-34,37.4s-35.6-16.9-35.6-37.1M1160.9,129.6v108.2c0,13.1,6.9,24.8,22,24.8s21-11.5,21-25.1v-107.7c0-12.6-6.4-25.3-21-25.3s-22,11.2-22,25.1"/>
  <path class="cls-1" d="M1339.4,275.2c-21.5,0-34.8-17.1-34.8-37.9V94h13.6v143.3c0,12.8,6.1,25.8,21.2,25.8s21.8-11.8,21.8-25.6V94h13.1v143.6c0,18.9-11.3,37.6-34.8,37.6"/>
  <path class="cls-1" d="M1461.6,237.3v-17.4h13.3v17.4c-.5,13.3,6.9,25.8,22.3,25.8s21.3-11.2,21.3-25.3v-12c0-11.8-10.5-16.4-22.8-23.3-14.6-8.2-32-16.7-33.5-37.1v-35.8c0-20.5,10.2-36.9,32.8-36.9s31.7,15.6,31.7,36.3v23.3h-13.1v-23.1c0-13.3-5.1-24.3-18.7-24.3s-19.2,7.9-19.2,24.6v35.3c.8,11.8,11.2,18.4,21.8,24.3,18.2,10.2,34,17.4,34,35.6v13c0,20-11,37.4-34.3,37.4s-35.8-15.1-35.6-37.9"/>
  <polygon class="cls-1" points="1631.7 213.5 1670.4 213.5 1670.4 225.3 1631.7 225.3 1631.7 261.1 1680.4 261.1 1680.4 273.1 1618.2 273.1 1618.2 94 1680.4 94 1680.4 105.8 1631.7 105.8 1631.7 213.5"/>
  <path class="cls-1" d="M990.1,543.2v-108.2c0-19.2,12-37.1,35.6-37.1s34,17.4,34,37.4v107.7c0,19-11.2,37.4-34,37.4s-35.6-16.9-35.6-37.1M1003.6,435v108.2c0,13.1,6.9,24.8,22,24.8s21-11.5,21-25.1v-107.7c0-12.6-6.4-25.3-21-25.3s-22,11.2-22,25.1"/>
  <polygon class="cls-1" points="1161.4 519.2 1200.6 519.2 1200.6 531.2 1161.4 531.2 1161.4 578.6 1147.9 578.6 1147.9 399.4 1207.5 399.4 1207.5 411.2 1161.4 411.2 1161.4 519.2"/>
  <path class="cls-1" d="M1003.3,847.9v-17.4h13.3v17.4c-.5,13.3,6.9,25.8,22.3,25.8s21.2-11.2,21.2-25.3v-12c0-11.8-10.5-16.4-22.8-23.3-14.6-8.2-32-16.7-33.5-37.1v-35.8c0-20.5,10.2-36.9,32.8-36.9s31.7,15.6,31.7,36.3v23.3h-13.1v-23.1c0-13.3-5.1-24.3-18.7-24.3s-19.2,7.9-19.2,24.6v35.3c.8,11.8,11.3,18.4,21.8,24.3,18.2,10.2,34,17.4,34,35.6v13c0,20-11,37.4-34.3,37.4s-35.8-15.1-35.6-37.9"/>
  <polygon class="cls-1" points="1188.2 716.4 1188.2 883.7 1175.2 883.7 1175.2 716.4 1150.1 716.4 1150.1 704.6 1213.1 704.6 1213.1 716.4 1188.2 716.4"/>
  <path class="cls-1" d="M1292.3,848.4v-108.2c0-19.2,12-37.1,35.6-37.1s34,17.4,34,37.4v107.7c0,19-11.2,37.4-34,37.4s-35.6-16.9-35.6-37.1M1305.9,740.2v108.2c0,13.1,6.9,24.8,22,24.8s21-11.5,21-25.1v-107.7c0-12.6-6.4-25.3-21-25.3s-22,11.2-22,25.1"/>
  <path class="cls-1" d="M1504.9,883.7v-31.5c0-9.2-5.9-15.3-15.9-15.3h-25.3v46.8h-13.5v-179.1h32.5c19.5.3,35.1,10.2,34.5,36.3v59.6c0,10-5.1,22-14.6,28.2,10.7,4.1,15.6,13.6,15.6,23.6v31.5h-13.3ZM1482.6,824.8c9.2,0,21.5-8.4,21.5-24.3v-59.6c0-14.8-7.2-24.3-21.5-24.3h-19v108.2h19Z"/>
  <rect class="cls-1" x="1605.6" y="704.6" width="13.6" height="179.1"/>
  <polygon class="cls-1" points="1721.7 824.1 1760.4 824.1 1760.4 835.9 1721.7 835.9 1721.7 871.7 1770.4 871.7 1770.4 883.7 1708.2 883.7 1708.2 704.6 1770.4 704.6 1770.4 716.4 1721.7 716.4 1721.7 824.1"/>
  <path class="cls-1" d="M1851.1,847.9v-17.4h13.3v17.4c-.5,13.3,6.9,25.8,22.3,25.8s21.3-11.2,21.3-25.3v-12c0-11.8-10.5-16.4-22.8-23.3-14.6-8.2-32-16.7-33.5-37.1v-35.8c0-20.5,10.2-36.9,32.8-36.9s31.7,15.6,31.7,36.3v23.3h-13.1v-23.1c0-13.3-5.1-24.3-18.7-24.3s-19.2,7.9-19.2,24.6v35.3c.8,11.8,11.2,18.4,21.8,24.3,18.2,10.2,34,17.4,34,35.6v13c0,20-11,37.4-34.3,37.4s-35.8-15.1-35.6-37.9"/>
  <rect class="cls-1" x="79" y="86.2" width="8.5" height="799.5"/>
  <rect class="cls-1" x="91.7" y="86.2" width="4.2" height="799.5"/>
  <rect class="cls-1" x="104.4" y="86.2" width="4.2" height="799.5"/>
  <rect class="cls-1" x="125.5" y="86.2" width="8.5" height="799.5"/>
  <rect class="cls-1" x="146.6" y="86.2" width="4.2" height="799.5"/>
  <rect class="cls-1" x="155.1" y="86.2" width="4.2" height="799.5"/>
  <rect class="cls-1" x="172" y="86.2" width="4.2" height="799.5"/>
  <rect class="cls-1" x="188.9" y="86.2" width="16.9" height="799.5"/>
  <rect class="cls-1" x="210.1" y="86.2" width="4.2" height="799.5"/>
  <rect class="cls-1" x="218.5" y="86.2" width="4.2" height="799.5"/>
  <rect class="cls-1" x="231.2" y="86.2" width="16.9" height="799.5"/>
  <rect class="cls-1" x="256.6" y="86.2" width="4.2" height="799.5"/>
  <rect class="cls-1" x="265" y="86.2" width="4.2" height="799.5"/>
  <rect class="cls-1" x="273.5" y="86.2" width="16.9" height="799.5"/>
  <rect class="cls-1" x="298.9" y="86.2" width="4.2" height="799.5"/>
  <rect class="cls-1" x="311.6" y="86.2" width="4.2" height="799.5"/>
  <rect class="cls-1" x="320" y="86.2" width="8.5" height="799.5"/>
  <rect class="cls-1" x="336.9" y="86.2" width="4.2" height="799.5"/>
  <rect class="cls-1" x="358.1" y="86.2" width="4.2" height="799.5"/>
  <rect class="cls-1" x="375" y="86.2" width="16.9" height="799.5"/>
  <rect class="cls-1" x="396.1" y="86.2" width="4.2" height="799.5"/>
  <rect class="cls-1" x="404.6" y="86.2" width="4.2" height="799.5"/>
  <rect class="cls-1" x="413" y="86.2" width="8.5" height="799.5"/>
  <rect class="cls-1" x="438.4" y="86.2" width="4.2" height="799.5"/>
  <rect class="cls-1" x="451.1" y="86.2" width="4.2" height="799.5"/>
  <rect class="cls-1" x="459.5" y="86.2" width="16.9" height="799.5"/>
  <rect class="cls-1" x="484.9" y="86.2" width="4.2" height="799.5"/>
  <rect class="cls-1" x="497.6" y="86.2" width="4.2" height="799.5"/>
  <rect class="cls-1" x="510.3" y="86.2" width="16.9" height="799.5"/>
  <rect class="cls-1" x="531.4" y="86.2" width="4.2" height="799.5"/>
  <rect class="cls-1" x="544.1" y="86.2" width="4.2" height="799.5"/>
  <rect class="cls-1" x="561" y="86.2" width="16.9" height="799.5"/>
  <rect class="cls-1" x="582.2" y="86.2" width="4.2" height="799.5"/>
  <rect class="cls-1" x="590.6" y="86.2" width="4.2" height="507.1"/>
  <rect class="cls-1" x="603.3" y="86.2" width="4.2" height="507.1"/>
  <rect class="cls-1" x="616" y="86.2" width="16.9" height="507.1"/>
  <rect class="cls-1" x="637.1" y="86.2" width="4.2" height="507.1"/>
  <rect class="cls-1" x="658.3" y="86.2" width="8.5" height="507.1"/>
  <rect class="cls-1" x="670.9" y="86.2" width="4.2" height="507.1"/>
  <rect class="cls-1" x="683.6" y="86.2" width="4.2" height="507.1"/>
  <rect class="cls-1" x="692.1" y="86.2" width="8.5" height="507.1"/>
  <rect class="cls-1" x="709" y="86.2" width="4.2" height="507.1"/>
  <rect class="cls-1" x="730.2" y="86.2" width="4.2" height="507.1"/>
  <rect class="cls-1" x="738.6" y="86.2" width="16.9" height="507.1"/>
  <rect class="cls-1" x="764" y="86.2" width="4.2" height="507.1"/>
  <rect class="cls-1" x="776.7" y="86.2" width="4.2" height="799.5"/>
  <rect class="cls-1" x="793.6" y="86.2" width="4.2" height="799.5"/>
  <rect class="cls-1" x="806.3" y="86.2" width="8.5" height="799.5"/>
  <rect class="cls-1" x="823.2" y="86.2" width="8.5" height="799.5"/>
  <rect class="cls-1" x="844.3" y="86.2" width="12.7" height="799.5"/>
  <rect class="cls-1" x="861.2" y="86.2" width="4.2" height="799.5"/>
  <rect class="cls-1" x="869.7" y="86.2" width="8.5" height="799.5"/>
</svg>